<?xml version="1.0" ?>

<!-- Uploaded to: SVG Repo, www.svgrepo.com, Generator: SVG Repo Mixer Tools -->
<svg width="800px" height="800px" viewBox="0 0 512 512" id="svg2793" style="fill-rule:evenodd;clip-rule:evenodd;stroke-linejoin:round;stroke-miterlimit:2;" version="1.1" xml:space="preserve" xmlns="http://www.w3.org/2000/svg" xmlns:cc="http://creativecommons.org/ns#" xmlns:dc="http://purl.org/dc/elements/1.1/" xmlns:rdf="http://www.w3.org/1999/02/22-rdf-syntax-ns#" xmlns:serif="http://www.serif.com/" xmlns:svg="http://www.w3.org/2000/svg">

<defs id="defs2797"/>

<g id="_45-Men" style="display:inline" transform="translate(-1.5e-4,-9216)">

<g id="g1849" transform="translate(143.246,9322.77)">
    <path d="m 0,-72.262 c 19.922,0 36.13,16.208 36.13,36.131 C 36.13,-16.208 19.922,0 0,0 -19.923,0 -36.131,-16.208 -36.131,-36.131 -36.131,-56.054 -19.923,-72.262 0,-72.262 M 0,30 c 36.464,0 66.13,-29.666 66.13,-66.131 0,-36.465 -29.666,-66.131 -66.13,-66.131 -36.465,0 -66.131,29.666 -66.131,66.131 C -66.131,0.334 -36.465,30 0,30" id="path1847" style="fill: white"/>
</g>

<g id="g1853" transform="translate(246.208,9558.23)">
    <path d="m 0,-17.934 c 0,7.708 -6.271,13.979 -13.983,13.979 -7.708,0 -13.98,-6.271 -13.98,-13.979 v -37.513 c 0,-8.284 -6.716,-15 -15,-15 -8.284,0 -15,6.716 -15,15 v 145.71 c 0,12.021 -4.681,23.321 -13.179,31.819 -8.5,8.499 -19.8,13.179 -31.823,13.179 -12.019,0 -23.319,-4.68 -31.818,-13.178 -8.5,-8.499 -13.18,-19.8 -13.18,-31.82 v -145.71 c 0,-8.284 -6.716,-15 -15,-15 -8.285,0 -15,6.716 -15,15 v 37.513 c 0,7.708 -6.272,13.979 -13.983,13.979 -7.709,0 -13.98,-6.271 -13.98,-13.979 v -61.369 c 0,-19.737 7.686,-38.293 21.642,-52.249 13.956,-13.956 32.512,-21.643 52.249,-21.643 h 58.144 c 19.737,0 38.292,7.687 52.249,21.643 C -7.686,-117.596 0,-99.04 0,-79.303 Z m -73.891,-165.261 h -58.144 c -27.751,0 -53.84,10.807 -73.462,30.43 -19.623,19.622 -30.429,45.711 -30.429,73.462 v 61.369 c 0,24.25 19.729,43.979 43.983,43.979 4.886,0 9.584,-0.813 13.98,-2.291 v 66.509 c 0,20.033 7.801,38.867 21.967,53.033 14.166,14.165 32.999,21.965 53.035,21.965 20.032,0 38.865,-7.8 53.032,-21.966 14.165,-14.165 21.966,-32.999 21.966,-53.032 V 23.754 c 4.396,1.478 9.095,2.291 13.983,2.291 C 10.271,26.045 30,6.316 30,-17.934 v -61.369 c 0,-27.75 -10.807,-53.84 -30.429,-73.462 -19.622,-19.623 -45.711,-30.43 -73.462,-30.43" id="path1851" style="fill: white"/>
</g>

<g id="g1857" transform="translate(351.4,9348.65)">
    <path d="m 0,-30 h -49.696 c -8.284,0 -15,6.716 -15,15 0,8.284 6.716,15 15,15 H 0 C 8.284,0 15,-6.716 15,-15 15,-23.284 8.284,-30 0,-30" id="path1855" style="fill: white"/>
</g>

<g id="g1861" transform="translate(453.072,9454.45)">
    <path d="m 0,37.293 h -88.486 c -10.282,0 -18.646,-8.365 -18.646,-18.646 C -107.132,8.365 -98.768,0 -88.486,0 H 0 C 10.281,0 18.646,8.365 18.646,18.647 18.646,28.929 10.281,37.293 0,37.293 M 0,-30 h -88.486 c -26.824,0 -48.646,21.823 -48.646,48.647 0,26.824 21.822,48.646 48.646,48.646 H 0 c 26.824,0 48.646,-21.822 48.646,-48.646 C 48.646,-8.178 26.824,-30 0,-30" id="path1859" style="fill: white"/>
</g>

<g id="g1865" transform="translate(387.697,9646.5)">
    <path d="m 0,-30 h -49.696 c -8.284,0 -15,6.716 -15,15 0,8.284 6.716,15 15,15 H 0 C 8.284,0 15,-6.716 15,-15 15,-23.284 8.284,-30 0,-30" id="path1863" style="fill: white"/>
</g>

<g id="g1869" transform="translate(433.847,9592.07)">
    <path d="m 0,-30 h -95.846 c -8.284,0 -15,6.716 -15,15 0,8.284 6.716,15 15,15 H 0 C 8.284,0 15,-6.716 15,-15 15,-23.284 8.284,-30 0,-30" id="path1867" style="fill: white"/>
</g>

</g>

</svg>
